# xmcd CD database file generated by OrangeCD 6.5
#
# Track frame offsets:
#	150
#	30897
#	52570
#	77870
#	103977
#	151852
#
# Disc length: 2764 seconds
#
# Revision: 6
# Processed by: cddbd v1.5.2PL0 Copyright (c) Steve Scherf et al.
# Submitted via: OrangeCD 6.5
#
DISCID=350aca06
DTITLE=Johnny Winter - Captured Live!
DYEAR=1976
DGENRE=Blues-Rock
TTITLE0=Bony Moronie
TTITLE1=Roll with Me
TTITLE2=Rock and Roll People
TTITLE3=It's All Over Now
TTITLE4=Highway 61 Revisited
TTITLE5=Sweet Papa John
EXTD=Johnny Winter: guitar, slide guitar, vocals\nFloyd Radford: guitar\nRandy 
EXTD=Jo Hobbs: bass, background vocals\nRichard Hughes: drums\nRecorded live on
EXTD=tour in 1975-09 at Swing Auditorium (San Bernadino US-CA), San Diego Spor
EXTD=ts Arena (San Diego US-CA), and Oakland Coliseum (Oakland US-CA).\nRemote 
EXTD=engineers: Ray Thompson and Shelly Yakus, for Wally Heider Studios (Los Ange
EXTD=les US-CA) - coordinator: Andy Bloch.\nMixed by Shelly Yakus at the Record 
EXTD=Plant, New York US-NY.\nMastered by Greg Calbi at the Master Cutting Room,
EXTD=New York US-NY.\nProduced by Johnny Winter.\nOriginally released as Blue 
EXTD=Sky LP (1976-03).\nCD: CBS/Blue Sky ZK 33944 (1989-12-19), UPC 07464339442
EXTD=0.\nAlso packaged in the "Johnny Winter/Second Winter/Captured Live!" 3-pa
EXTD=k, Columbia C3K 65399 (1997-08-12), UPC 074646539927.
EXTT0=(Larry Williams)
EXTT1=(Rick Derringer)
EXTT2=(John Lennon)
EXTT3=(Bobby Womack/Shirley Jean Womack)
EXTT4=(Bob Dylan)
EXTT5=(Johnny Winter)
PLAYORDER=
